<svg width="41" height="28" viewBox="0 0 41 28" fill="none" xmlns="http://www.w3.org/2000/svg">
    <path
        d="M40.8821 13.4533C40.8223 13.3199 39.3754 10.1491 36.1586 6.97156C31.8724 2.73762 26.4587 0.5 20.5 0.5C14.5413 0.5 9.12762 2.73762 4.8414 6.97156C1.62461 10.1491 0.170817 13.325 0.117859 13.4533C0.040152 13.6259 0 13.8127 0 14.0017C0 14.1906 0.040152 14.3775 0.117859 14.5501C0.17765 14.6834 1.62461 17.8526 4.8414 21.0301C9.12762 25.2624 14.5413 27.5 20.5 27.5C26.4587 27.5 31.8724 25.2624 36.1586 21.0301C39.3754 17.8526 40.8223 14.6834 40.8821 14.5501C40.9598 14.3775 41 14.1906 41 14.0017C41 13.8127 40.9598 13.6259 40.8821 13.4533ZM20.5 24.8C15.2417 24.8 10.648 22.9117 6.84528 19.1891C5.28497 17.6563 3.95749 15.9085 2.90415 14C3.95721 12.0913 5.28471 10.3435 6.84528 8.81094C10.648 5.08831 15.2417 3.2 20.5 3.2C25.7583 3.2 30.352 5.08831 34.1547 8.81094C35.7181 10.3431 37.0485 12.091 38.1044 14C36.8727 16.2714 31.5068 24.8 20.5 24.8ZM20.5 5.9C18.8782 5.9 17.2928 6.37506 15.9443 7.2651C14.5958 8.15514 13.5448 9.42018 12.9242 10.9003C12.3035 12.3803 12.1412 14.009 12.4576 15.5802C12.774 17.1515 13.5549 18.5948 14.7017 19.7276C15.8485 20.8604 17.3096 21.6318 18.9003 21.9444C20.4909 22.2569 22.1397 22.0965 23.638 21.4834C25.1364 20.8704 26.417 19.8322 27.3181 18.5001C28.2191 17.1681 28.7 15.602 28.7 14C28.6977 11.8524 27.8331 9.79346 26.2958 8.2749C24.7585 6.75634 22.6741 5.90223 20.5 5.9ZM20.5 19.4C19.4188 19.4 18.3619 19.0833 17.4629 18.4899C16.5639 17.8966 15.8632 17.0532 15.4495 16.0665C15.0357 15.0798 14.9274 13.994 15.1384 12.9465C15.3493 11.899 15.87 10.9368 16.6345 10.1816C17.399 9.42642 18.3731 8.91212 19.4335 8.70376C20.4939 8.4954 21.5931 8.60234 22.592 9.01105C23.5909 9.41976 24.4447 10.1119 25.0454 10.9999C25.6461 11.8879 25.9667 12.932 25.9667 14C25.9667 15.4322 25.3907 16.8057 24.3655 17.8184C23.3403 18.8311 21.9499 19.4 20.5 19.4Z"
        fill="#8675AA" />
</svg>
    