<?xml version="1.0" encoding="UTF-8"?>
<svg id="Calque_1" data-name="Calque 1" xmlns="http://www.w3.org/2000/svg"
  viewBox="0 0 569.39 435.92">
  <defs>
    <style>
      .cls-1 {
      fill: #1d1d1b;
      }

      .cls-1, .cls-2 {
      stroke-width: 0px;
      }

      .cls-2 {
      fill: #fff;
      }
    </style>
  </defs>
  <g>
    <path class="cls-2"
      d="m55.76,225.05C-49.91,192.18,7.96,9.34,118.2,31.98c0,0,79.57-71.73,150.96-.35,0,0,82.98-20.38,103.01,51.98,0,0,27.58-14.49,48.96,0,0,0,39.71-55.4,101.34-25.34,69.29,33.8,31.26,97.34,31.26,97.34,0,0,35.22,33.54,0,69.43,0,0,16.5,51.78-40.26,72.57-53.83,19.71-80.51-14.03-80.51-14.03,0,0-31.37,45.4-85.5,18.29,0,0-36.48,68.51-122.04,32.02,0,0-56.83,61.64-124.94,12.58,0,0-30.88-23.57-15.79-69.65,0,0-37.74-10.86-28.93-51.78" />
    <path class="cls-1"
      d="m112.29,156.71c-6.58.44-13.17.74-19.69,1.58-11.53,1.47-1.33,29.47-14.38,31.13-2.17.28-7.5-.78-7.95-4.32l-1.12-8.78s4.91-36.98,7.37-52.34c1.49-10.84,5.45-31.86,17.08-33.34,10.11-1.29,19.4,13.51,22.91,23.72,1.21,3.44,12.39,33.98,13.6,37.42.98,1.61,6.45,15.96,7.45,17.7.1.79,1.09,3.33,1.2,4.24.78,6.16-2.47,9.24-6.82,9.79-9.46,1.2-14.86-18.62-17.15-24.45l-2.51-2.34Zm-15.69-18.24c1.63-.21,3.23-.68,4.42-.83,1.52-.19,5.11-.65,4.68-4.06-.33-2.62-5.17-17.19-8.76-16.73-3.59.46-5.5,14.95-5.05,18.49.4,3.14,2.53,3.41,4.71,3.13Z" />
    <path class="cls-1"
      d="m149.52,135.3c6.52-.83,11.54,3.86,19.59,2.83.65-.08,5-.64,5.76-.73,2.18-.28,4.02-3.17,3.68-5.79-1.43-11.27-35.81-9.56-39.59-39.31-2.22-17.43,9.71-27.87,23.41-29.61,7.29-.93,22.08-.15,23.63,12.04.67,5.24-2.47,9.24-6.82,9.79-4.35.55-9.25-3.22-14.36-2.57-3.59.46-10.77,2.17-9.99,8.33,2.22,17.43,36.03,10.46,40.03,41.91,2.12,16.64-11.67,24.66-23.96,26.22-7.94,1.01-25.79-.31-27.46-13.42-.67-5.24,1.71-9.14,6.06-9.69Z" />
    <path class="cls-1"
      d="m214.63,157.52c6.52-.83,11.54,3.86,19.59,2.83.65-.08,5-.64,5.76-.73,2.18-.28,4.02-3.17,3.68-5.79-1.43-11.27-35.81-9.56-39.59-39.31-2.22-17.43,9.71-27.87,23.41-29.61,7.29-.93,22.08-.15,23.63,12.04.67,5.24-2.47,9.24-6.82,9.79-4.35.55-9.25-3.22-14.36-2.57-3.59.46-10.77,2.17-9.99,8.33,2.22,17.43,36.03,10.46,40.03,41.91,2.12,16.64-11.67,24.66-23.96,26.22-7.94,1.01-25.79-.31-27.46-13.42-.67-5.24,1.71-9.14,6.06-9.69Z" />
    <path class="cls-1"
      d="m292.69,56.71c18.16-2.31,32.92,20.71,35.37,39.98,3.22,25.29-9.76,50.91-31.51,53.68-18.81,2.39-32.14-15.49-34.81-36.45-3-23.59,9.97-54.53,30.95-57.21Zm.64,74.49c13.81-1.76,19.86-17.58,17.98-32.38-.12-.92-.78-6.16-.9-7.08-2.51-8.47-9.06-13.89-16.35-12.97-11.64,1.48-17.36,19.92-15.79,32.24,1.22,9.57,5.71,21.38,15.06,20.19Z" />
    <path class="cls-1"
      d="m147.51,259.35c6.47-1.17,11.73,3.24,19.71,1.79.65-.12,4.96-.9,5.72-1.04,2.16-.39,3.84-3.38,3.37-5.98-2.03-11.18-36.26-7.66-41.61-37.16-3.14-17.29,8.23-28.34,21.82-30.81,7.23-1.31,22.04-1.31,24.24,10.78.94,5.2-1.98,9.35-6.29,10.14-4.31.78-9.41-2.72-14.48-1.8-3.56.65-10.64,2.74-9.54,8.85,3.14,17.29,36.53,8.54,42.19,39.74,2.99,16.51-10.35,25.24-22.54,27.45-7.87,1.43-25.77,1.05-28.13-11.95-.94-5.2,1.22-9.22,5.54-10Z" />
    <path class="cls-1"
      d="m239.74,252.48l-18.66,3.38c-.76.14-2.44,3.13-2.3,3.91l5.19,28.6c.8,4.42-3.21,6.89-6.01,7.4-9.38,1.7-12.38-14.81-13.79-22.6-2.03-11.18-13.66-67.34-.07-69.8,4.31-.78,8.93,3.75,9.87,8.95,1.11,6.11.71,12.49,1.96,19.38.31,1.69.78,4.29,2.94,3.9l20.17-3.66c5.07-.92-7.37-32.63,6.22-35.1,5.07-.92,8.01,2.98,9.11,9.09,2.83,15.6,3.5,31.59,6.17,46.28.47,2.6,2.52,13.91,2.99,16.51,1.39,3.37,1.7,5.06,2.33,8.57.94,5.2-1.03,10.93-5.34,11.71-7.23,1.31-10.21-7.14-12.07-13.12-.61-3.38-4.7-17.94-5.32-21.32-.92-.77-2.63-2.21-3.38-2.07Z" />
    <path class="cls-1"
      d="m315.99,240.56c-6.54.78-13.11,1.44-19.58,2.61-11.43,2.07.23,29.5-12.72,31.84-2.16.39-7.53-.38-8.17-3.89l-1.58-8.71s2.95-37.19,4.6-52.66c.92-10.91,3.76-32.1,15.3-34.19,10.03-1.82,20.09,12.47,24.13,22.48,1.39,3.37,14.17,33.28,15.56,36.65,1.06,1.55,7.28,15.59,8.37,17.28.14.78,1.26,3.26,1.43,4.17,1.11,6.11-1.98,9.35-6.29,10.14-9.38,1.7-15.82-17.81-18.41-23.51l-2.63-2.21Zm-16.63-17.39c1.62-.29,3.19-.85,4.37-1.06,1.51-.27,5.07-.92,4.46-4.3-.47-2.6-6.07-16.89-9.63-16.25s-4.7,15.22-4.07,18.73c.57,3.12,2.71,3.27,4.87,2.88Z" />
    <path class="cls-1"
      d="m343.14,213.63c-3.44-18.98-4.39-24.18-7.51-45.09-3.18-21.84,5.28-24.32,21.79-27.31,13.7-2.48,25.31,4.41,28.44,21.69,3.16,17.42-7.46,36.26-6.66,40.68,1.08,5.98,13.72,1.94,15.61,12.34.94,5.2-2.9,8.58-6.57,9.25-7.87,1.43-16.21-3.37-24.08-1.94-.75.14-2.16.39-1.99,1.3.35,6.25.37,14.3-6.11,15.47-4.32.78-7.7-1.29-9.29-6.37-.47-2.6-2.99-16.51-3.63-20.02Zm16.16-17.16c8.63-1.57,11.8-20.94,10.22-29.64l-.78-4.29c-2.04-3.26-4.95-2.73-7.86-2.2s-8.04.52-8.64,5.19c.49,7.03,1.44,12.22,2.69,19.11.33,1.82,1.58,8.71,1.89,10.4,1.09,1.68,1.73,1.57,2.49,1.43Z" />
    <path class="cls-1"
      d="m403.84,195.38c-1.6-13.14-7.25-36.28,8.5-39.13,3.67-.67,26.17-7.43,28.53,5.57,1.53,8.45-5.22,11.15-11.47,12.28-3.34.61-6.65.8-8.38,1.12-4.01,2.47-1.84,10.14-.9,15.33,2.05,11.31,15.91-1.95,18.44,11.96,1.72,9.49-6.91,11.05-12.46,13,0,0-2.44,3.13-2.13,4.82l2.19,12.09c.16.91,2.63,2.21,3.38,2.07s4.31-.78,5.07-.92c4.31-.78,7.57-3.12,12.64-4.04,4.31-.78,7.9,3,8.7,7.42,2.19,12.09-10.75,14.44-17.87,15.73-13.7,2.48-25.59-1.67-28.73-18.96-2.36-13-3.49-23.53-5.51-38.34Z" />
    <path class="cls-1"
      d="m485.89,172.72c.14,3.49-.76,6-2.7,7.53-1.94,1.53-4.28,2.35-7,2.46-1.28.05-2.56-.11-3.86-.48s-2.49-.92-3.59-1.65-2.03-1.58-2.79-2.57-1.22-2.08-1.35-3.27c-.24-1.61-.46-3.95-.67-7.01-.21-3.06-.44-6.51-.68-10.34-.04-.94-.1-1.92-.18-2.94s-.15-2.08-.19-3.19c-.52-8.6-1.02-16.13-1.49-22.59-.48-6.46-1.16-12.24-2.05-17.32-.33-1.86-.23-3.53.31-5s1.36-2.74,2.47-3.81c1.11-1.07,2.38-1.89,3.8-2.46s2.86-.88,4.31-.94c1.28-.05,2.54.09,3.79.42s2.4.86,3.46,1.59,1.92,1.67,2.61,2.84,1.11,2.56,1.26,4.17l4.54,64.57Zm-18.96,31.1c-1.35-1.82-1.94-3.7-1.76-5.62s.83-3.7,1.96-5.33c1.13-1.62,2.63-2.99,4.5-4.09,1.87-1.1,3.79-1.69,5.75-1.77s3.81.34,5.55,1.25,3.17,2.37,4.27,4.37c.37.75.68,1.59.93,2.52s.39,1.73.42,2.41c.13,3.24-.96,5.86-3.26,7.88-2.31,2.01-5.04,3.08-8.19,3.21-1.87.08-3.77-.32-5.68-1.18-1.91-.86-3.68-2.32-5.3-4.39l.8.74Z" />
  </g>
  <path class="cls-2"
    d="m134.18,348.14s.54,48.51,84.86,87.79c0,0-52.12-42.84-33.5-102.8l-51.36,15.02Z" />
</svg>