<svg width="32" height="28" viewBox="0 0 32 28" fill="none" xmlns="http://www.w3.org/2000/svg">
    <path
        d="M12.5 11.9167H19.5M16 8.44444V15.3889M4.0496 20.7056C2 19.0792 2 17.8486 2 12.6111C2 7.37361 2 4.75417 4.0496 3.12778C6.102 1.5 9.4004 1.5 16 1.5C22.5996 1.5 25.8994 1.5 27.949 3.12778C30 4.75417 30 7.37361 30 12.6111C30 17.8486 30 19.0792 27.949 20.7056C25.9008 22.3333 22.5996 22.3333 16 22.3333C12.486 22.3333 10.68 24.7472 7.6 26.5V22.0389C6.0684 21.8125 4.9414 21.4139 4.0496 20.7056Z"
        stroke="#8675AA" stroke-width="3" stroke-linecap="round" stroke-linejoin="round" />
</svg>
    