<svg width="65" height="67" viewBox="0 0 65 67" fill="none" xmlns="http://www.w3.org/2000/svg">
    <path d="M63.7154 45.3571L59.5157 44.5888C59.5665 43.64 59.5615 42.681 59.5157 41.7219L63.7814 41.0774C63.9221 41.0564 64.0574 41.0075 64.1795 40.9335C64.3016 40.8594 64.4081 40.7617 64.493 40.6458C64.5779 40.5299 64.6395 40.3982 64.6742 40.2581C64.7089 40.1181 64.7162 39.9725 64.6954 39.8296C64.6091 39.2315 64.0556 38.819 63.4665 38.9015L59.3126 39.5305C58.8556 36.4471 57.6876 33.374 55.9204 30.605C56.4536 25.4385 57.4743 11.4341 53.3357 8.61364C50.0349 6.36552 42.1841 14.7083 39.6552 17.7041C39.0712 18.395 38.538 19.019 38.0505 19.5861C36.2833 19.3129 34.4857 19.1633 32.6931 19.1633C30.9005 19.1582 29.1079 19.3129 27.3407 19.5861C26.8532 19.019 26.32 18.395 25.7361 17.7041C23.2072 14.7083 15.3564 6.36552 12.0607 8.61364C7.922 11.4341 8.94778 25.4385 9.4759 30.605C7.71379 33.3688 6.53567 36.4471 6.08372 39.5305L1.92981 38.9015C1.34075 38.819 0.787232 39.2263 0.695826 39.8296C0.604419 40.4277 1.01575 40.9897 1.60481 41.0774L5.87043 41.7219C5.82473 42.681 5.81965 43.64 5.87043 44.5888L1.6759 45.3571C1.40865 45.4046 1.16874 45.5524 1.00371 45.771C0.838668 45.9897 0.760548 46.2633 0.784824 46.5377C0.8091 46.8121 0.934001 47.0672 1.13478 47.2525C1.33556 47.4378 1.59756 47.5398 1.86887 47.5382C1.92981 47.5382 1.99583 47.533 2.06184 47.5227L6.09387 46.7854C6.26145 47.8682 6.5052 48.9355 6.85559 49.9719L3.56497 51.029C3.29178 51.1185 3.06442 51.3138 2.93226 51.5725C2.80009 51.8313 2.77381 52.1325 2.85911 52.4108C2.94612 52.689 3.13833 52.9208 3.39351 53.0551C3.64869 53.1895 3.94597 53.2156 4.22004 53.1275L7.69856 52.0086C8.70403 54.0144 10.1767 55.8604 12.2587 57.4382C15.331 59.7636 19.1497 61.3415 23.0904 62.1974C24.5833 62.5222 28.4529 63.2802 32.5103 63.2802C36.5677 63.2802 40.813 62.5222 42.3111 62.1974C46.2466 61.3415 50.0704 59.7636 53.1427 57.4382C55.2247 55.8604 56.6974 54.0144 57.7029 52.0086L61.1763 53.1275C61.4504 53.2156 61.7477 53.1895 62.0028 53.0551C62.258 52.9208 62.4502 52.689 62.5372 52.4108C62.72 51.8333 62.4052 51.2146 61.8364 51.029L58.5458 49.9668C58.8962 48.9355 59.145 47.8682 59.3075 46.7802L63.3447 47.5175C63.6272 47.5674 63.9178 47.5023 64.1535 47.3364C64.3892 47.1704 64.551 46.9169 64.604 46.6307C64.6472 46.3429 64.5786 46.0493 64.4129 45.8117C64.2471 45.5742 63.9971 45.4112 63.7154 45.3571Z" fill="#F79329"/>
    <path d="M36.0294 54.1382C36.1361 54.3754 35.9431 54.7569 35.8873 54.9735C35.8162 55.2468 35.7501 55.5149 35.6689 55.7779C35.283 57.0772 34.6228 58.2941 33.206 58.5777C31.8959 58.8407 30.6365 57.9332 30.1439 56.7318C29.9611 56.2935 29.8189 55.8397 29.6666 55.3911C29.5853 55.1436 29.5041 54.8961 29.4279 54.6538C29.372 54.4785 29.2248 54.2 29.2451 54.0196C29.9662 53.9732 30.8041 53.6432 31.4236 53.2719C31.6267 53.1482 31.8552 53.0811 32.0431 52.9316C32.2107 52.7975 32.3173 52.6068 32.5306 52.5397C32.7439 52.7718 33.1044 52.9007 33.3685 53.0811C33.6884 53.2977 34.0134 53.4885 34.3587 53.6535C34.6787 53.8082 35.0595 53.8082 35.3896 53.8958C35.5623 53.9422 35.8517 53.9165 35.9787 54.066C36.0041 54.0866 36.0193 54.1072 36.0294 54.1382Z" fill="#ED6C30"/>
    <path d="M23.8264 42.7325C23.8264 45.0993 22.1455 47.0122 20.0787 47.0122C18.0119 47.0122 16.3311 45.0941 16.3311 42.7325C16.3311 40.3607 18.0119 38.4477 20.0787 38.4477C22.1455 38.4425 23.8264 40.3607 23.8264 42.7325ZM41.2647 42.7325C41.2647 45.0993 42.9404 47.0122 45.0123 47.0122C47.0791 47.0122 48.76 45.0941 48.76 42.7325C48.76 40.3607 47.0791 38.4477 45.0123 38.4477C42.9455 38.4425 41.2647 40.3607 41.2647 42.7325ZM32.7436 53.1791C32.3525 53.1791 32.0377 52.8594 32.0377 52.4624V48.26C32.0377 47.863 32.3525 47.5433 32.7436 47.5433C33.1346 47.5433 33.4494 47.863 33.4494 48.26V52.4624C33.4494 52.8594 33.1346 53.1791 32.7436 53.1791Z" fill="#2F2F2F"/>
    <path d="M29.1939 54.8652C28.9755 54.8652 28.7419 54.8549 28.5033 54.8343C25.629 54.5764 24.3646 52.3128 24.0954 51.1475C24.0437 50.9199 24.0832 50.6806 24.205 50.4824C24.3269 50.2843 24.5213 50.1433 24.7454 50.0905C24.8562 50.0637 24.971 50.0594 25.0834 50.0779C25.1957 50.0964 25.3033 50.1372 25.4001 50.1981C25.4969 50.2589 25.5808 50.3386 25.6471 50.4325C25.7134 50.5265 25.7608 50.6328 25.7865 50.7453C25.8119 50.8536 26.3501 52.8697 28.6556 53.0811C31.0677 53.3028 32.0021 52.0189 32.0427 51.9622C32.322 51.5703 32.8552 51.4724 33.2462 51.7457C33.6372 52.0189 33.7388 52.5552 33.4747 52.9574C33.4189 53.0399 32.1697 54.8652 29.1939 54.8652Z" fill="#2F2F2F"/>
    <path d="M36.3187 54.8652C33.3429 54.8652 32.0937 53.0399 32.0378 52.9574C31.7687 52.5552 31.8753 52.0035 32.2714 51.7302C32.6726 51.4569 33.2109 51.5652 33.48 51.9674C33.5105 52.0087 34.4601 53.2926 36.857 53.076C39.2081 52.8646 39.721 50.766 39.7261 50.7454C39.8378 50.271 40.305 49.9771 40.7671 50.0854C41.2343 50.1988 41.5238 50.668 41.4171 51.1424C41.148 52.3026 39.8785 54.5713 37.0093 54.8291C36.7656 54.8549 36.537 54.8652 36.3187 54.8652ZM30.0726 48.2291C30.1132 48.7705 30.4738 49.3377 31.0324 49.6832C31.4792 49.9668 32.114 50.106 32.7386 50.106C33.3581 50.106 33.9929 49.9668 34.4398 49.6832C34.9984 49.3326 35.3589 48.7705 35.3995 48.2291C35.4402 47.7135 35.3234 47.1876 34.7699 46.8266C34.4652 46.6255 34.0843 46.4915 33.6933 46.4193C33.546 46.3935 33.1601 46.3265 32.7538 46.3265C32.3527 46.3265 31.9312 46.3884 31.7788 46.4193C31.3878 46.4915 31.007 46.6255 30.7023 46.8266C30.1538 47.1927 30.032 47.7135 30.0726 48.2291Z" fill="#2F2F2F"/>
    <path d="M32.7182 50.8743C31.9361 50.8743 31.1744 50.6783 30.6311 50.338C29.8846 49.8688 29.3768 49.085 29.3158 48.291C29.2295 47.136 29.8033 46.5121 30.2908 46.1872C30.6666 45.9449 31.1338 45.7644 31.6416 45.6716C31.8447 45.6304 32.3068 45.5685 32.7486 45.5685C33.226 45.5685 33.6627 45.6407 33.8252 45.6716C34.333 45.7644 34.8002 45.9449 35.1709 46.1872C35.6635 46.5121 36.2373 47.1411 36.1459 48.2961C36.085 49.085 35.5822 49.8688 34.8307 50.3432C34.2873 50.6835 33.5256 50.8794 32.7436 50.8794H32.7182V50.8743ZM32.7537 47.0947C32.4084 47.0947 32.0377 47.1515 31.9209 47.1721C31.6061 47.234 31.3166 47.3371 31.1135 47.4711C30.9154 47.6 30.7986 47.765 30.8291 48.1672C30.8545 48.4766 31.0881 48.8118 31.4334 49.0283C31.7432 49.2243 32.2256 49.3377 32.7283 49.3377V50.106L32.7385 49.3377C33.2615 49.3377 33.7439 49.2191 34.0486 49.0283C34.3889 48.8169 34.6326 48.4715 34.6529 48.1672C34.6885 47.765 34.5666 47.6 34.3686 47.4711C34.1654 47.3371 33.876 47.234 33.5662 47.1721C33.4799 47.1618 33.1193 47.0947 32.7537 47.0947Z" fill="#2F2F2F"/>
    <path d="M32.7439 59.5368C31.3067 59.5368 29.9255 58.5829 29.311 57.0824C29.0267 56.3863 28.4528 54.561 28.4274 54.4836C28.2751 54.0041 28.5392 53.4885 29.0114 53.3338C29.4837 53.1791 29.9915 53.4472 30.1439 53.9268C30.3419 54.5558 30.7685 55.881 30.9716 56.376C31.2864 57.1443 32.1192 57.861 33.0282 57.6805C33.861 57.5155 34.4095 56.8452 34.8056 55.5149C34.8564 55.3344 34.963 54.9271 35.0646 54.5455C35.1407 54.2465 35.2169 53.9577 35.2575 53.8082C35.3946 53.3235 35.8821 53.0399 36.3696 53.1791C36.847 53.3183 37.1263 53.8236 36.9892 54.3083C36.9485 54.4527 36.8775 54.726 36.8013 55.0147C36.6997 55.4118 36.588 55.8397 36.5271 56.0408C36.3036 56.7833 35.6333 59.0211 33.3735 59.4749C33.1704 59.5161 32.9571 59.5368 32.7439 59.5368Z" fill="#2F2F2F"/>
    </svg>
    