<svg width="47" height="48" viewBox="0 0 47 48" fill="none" xmlns="http://www.w3.org/2000/svg">
    <g clip-path="url(#clip0_37_711)">
        <path
            d="M25.7068 12.8033L38.7059 35.7991M38.0251 34.5909L5.97397 42.1943L3.92822 38.5595L26.3944 14.0183"
            stroke="white" stroke-width="4" stroke-linecap="round" stroke-linejoin="round" />
        <path
            d="M12.9472 40.5387L14.7132 43.6571C15.3532 44.7777 16.4029 45.5927 17.6313 45.9228C18.8596 46.253 20.1661 46.0713 21.2633 45.4177C22.3605 44.7641 23.1586 43.6921 23.4818 42.4376C23.8051 41.1831 23.6272 39.8488 22.9872 38.7282L22.7041 38.2291M26.59 6.22918V1.91295M42.774 22.7609H47.0003M6.18311 22.7609H10.406M12.1552 8.019L15.1413 11.072M38.0354 11.072L41.0215 8.019"
            stroke="white" stroke-width="4" stroke-linecap="round" stroke-linejoin="round" />
    </g>
    <defs>
        <clipPath id="clip0_37_711">
            <rect width="47" height="48" fill="white" />
        </clipPath>
    </defs>
</svg>
    