<svg width="30" height="28" viewBox="0 0 30 28" fill="none" xmlns="http://www.w3.org/2000/svg">
    <path
        d="M16.1329 2.16448C17.6371 1.10393 19.3819 0.57365 21.3524 0.57365C22.4354 0.57365 23.6237 0.853519 24.9173 1.44272C26.2109 2.01719 27.2337 2.69476 27.9858 3.47545C29.5351 5.36088 30.1819 7.55565 29.9563 10.0597C29.7156 12.5638 28.8733 14.5229 27.4142 15.9075L15.9975 27.0876C15.7117 27.3674 15.3507 27.5 14.9296 27.5C14.5084 27.5 14.1624 27.3674 13.8766 27.0876C13.7377 26.9534 13.6286 26.7925 13.5561 26.6151C13.4836 26.4376 13.4494 26.2475 13.4555 26.0565C13.4555 25.644 13.5908 25.2905 13.8766 25.0106L20.7808 18.2496C21.1569 17.9255 21.1569 17.5867 20.7808 17.2185C20.4048 16.8502 20.0588 16.8502 19.7279 17.2185L12.8237 23.9795C12.6845 24.1169 12.5177 24.2244 12.3339 24.2954C12.1501 24.3664 11.9532 24.3993 11.7557 24.392C11.3346 24.392 10.9886 24.2594 10.7028 23.9795C10.5639 23.8453 10.4548 23.6845 10.3823 23.5071C10.3098 23.3296 10.2756 23.1394 10.2816 22.9484C10.2816 22.536 10.417 22.1825 10.7028 21.9026L17.607 15.1416C18.0131 14.7733 18.0131 14.4051 17.607 14.0368C17.261 13.6686 16.9301 13.6686 16.5541 14.0368L9.64989 20.8715C9.5091 21.0067 9.34203 21.1129 9.15859 21.1837C8.97515 21.2546 8.77906 21.2887 8.58192 21.284C8.16075 21.284 7.79975 21.1514 7.48387 20.8715C7.18304 20.5917 7.03262 20.2529 7.03262 19.8404C7.03262 19.428 7.19808 19.0597 7.529 18.7357L14.4482 11.9599C14.8243 11.5917 14.8243 11.2529 14.4482 10.9288C14.0722 10.6047 13.7112 10.6047 13.3803 10.9288L6.40087 17.7193C6.06995 18.0139 5.72399 18.1759 5.34794 18.1759C4.92677 18.1759 4.56577 18.0286 4.29502 17.7193C4.00922 17.4247 3.8588 17.0712 3.8588 16.6588C3.8588 16.2463 4.00922 15.9075 4.29502 15.6277C8.8978 11.0908 11.7407 8.35106 12.8237 7.3347L18.1786 12.5196C18.7652 13.0646 19.4421 13.3445 20.2694 13.3445C21.3223 13.3445 22.1496 12.9321 22.7663 12.1072C23.1875 11.5033 23.3379 10.8404 23.2176 10.1039C23.0972 9.36743 22.7814 8.74877 22.2699 8.23322L16.1329 2.16448ZM19.2315 11.4885L12.8237 5.19885L2.17412 15.6277C0.910614 14.3756 0.188608 12.4607 0.0231485 9.85352C-0.142311 7.26105 0.579695 5.00737 2.17412 3.12193C3.9641 1.3838 6.10003 0.5 8.58192 0.5C11.0789 0.5 13.1998 1.3838 14.9296 3.12193L21.3524 9.41162C21.6382 9.69149 21.7736 10.0303 21.7736 10.4427C21.7736 10.8552 21.6382 11.2087 21.3524 11.4885C21.0666 11.7537 20.7206 11.901 20.2694 11.901C19.8633 11.901 19.5173 11.7537 19.2315 11.4885Z"
        fill="#8675AA" />
</svg>
    