<svg width="35" height="43" viewBox="0 0 35 43" fill="none" xmlns="http://www.w3.org/2000/svg">
    <path d="M17.5 0C22.1413 0 26.5925 1.86449 29.8744 5.18331C33.1563 8.50213 35 13.0034 35 17.6969C35 25.175 29.8038 33.3247 19.5462 42.233C18.9758 42.7285 18.2486 43.0007 17.4966 43C16.7447 42.9993 16.018 42.7259 15.4485 42.2294L14.77 41.6341C4.96641 32.958 0 25.008 0 17.6969C0 13.0034 1.84375 8.50213 5.12563 5.18331C8.40752 1.86449 12.8587 0 17.5 0ZM17.5 10.8904C15.7149 10.8904 14.0029 11.6075 12.7406 12.884C11.4784 14.1605 10.7692 15.8917 10.7692 17.6969C10.7692 19.5021 11.4784 21.2334 12.7406 22.5099C14.0029 23.7863 15.7149 24.5034 17.5 24.5034C19.2851 24.5034 20.9971 23.7863 22.2594 22.5099C23.5216 21.2334 24.2308 19.5021 24.2308 17.6969C24.2308 15.8917 23.5216 14.1605 22.2594 12.884C20.9971 11.6075 19.2851 10.8904 17.5 10.8904Z" fill="#8E76AE"/>
    </svg>
    