<svg width="50" height="50" viewBox="0 0 50 50" fill="none" xmlns="http://www.w3.org/2000/svg">
    <path
        d="M17.361 18.9542H34.0277M17.361 27.451H29.861M38.1943 8.33333C39.8519 8.33333 41.4417 9.00472 42.6138 10.1998C43.7859 11.3949 44.4443 13.0158 44.4443 14.7059V31.6993C44.4443 33.3894 43.7859 35.0103 42.6138 36.2054C41.4417 37.4005 39.8519 38.0719 38.1943 38.0719H27.7777L17.361 44.4444V38.0719H13.1943C11.5367 38.0719 9.94702 37.4005 8.77492 36.2054C7.60282 35.0103 6.94434 33.3894 6.94434 31.6993V14.7059C6.94434 13.0158 7.60282 11.3949 8.77492 10.1998C9.94702 9.00472 11.5367 8.33333 13.1943 8.33333H38.1943Z"
        stroke="white" stroke-width="4" stroke-linecap="round" stroke-linejoin="round" />
</svg>
    