<svg width="37" height="37" viewBox="0 0 37 37" fill="none" xmlns="http://www.w3.org/2000/svg">
    <path
        d="M2 30.1093C2 27.9793 2.84615 25.9365 4.3523 24.4304C5.85845 22.9242 7.90124 22.0781 10.0313 22.0781H26.0938C28.2238 22.0781 30.2666 22.9242 31.7727 24.4304C33.2789 25.9365 34.125 27.9793 34.125 30.1093C34.125 31.1743 33.702 32.1957 32.9489 32.9488C32.1958 33.7019 31.1744 34.125 30.1094 34.125H6.01563C4.95062 34.125 3.92923 33.7019 3.17615 32.9488C2.42307 32.1957 2 31.1743 2 30.1093Z"
        stroke="white" stroke-width="4" stroke-linejoin="round" />
    <path
        d="M18.0625 14.0469C21.3892 14.0469 24.086 11.3501 24.086 8.02344C24.086 4.69679 21.3892 2 18.0625 2C14.7359 2 12.0391 4.69679 12.0391 8.02344C12.0391 11.3501 14.7359 14.0469 18.0625 14.0469Z"
        stroke="white" stroke-width="4" />
</svg>
    