<svg width="52" height="51" viewBox="0 0 52 51" fill="none" xmlns="http://www.w3.org/2000/svg">
    <path
        d="M38.8125 4.17206H7.1875V9.73493H38.8125C40.3937 9.73493 41.6875 10.9866 41.6875 12.5164V40.3307H24.4375V45.8936H47.4375V12.5164C47.4375 7.92699 43.5563 4.17206 38.8125 4.17206Z"
        fill="#90CAF9" />
    <path d="M0 0H14.375V13.9072H0V0Z" fill="#D81B60" />
    <path
        d="M37.375 15.2974H51.75V29.2045H37.375V15.2974ZM14.375 36.1581H28.75V50.0653H14.375V36.1581Z"
        fill="#2196F3" />
    <path
        d="M28.75 13.9072C32.7195 13.9072 35.9375 10.7939 35.9375 6.95358C35.9375 3.11323 32.7195 0 28.75 0C24.7805 0 21.5625 3.11323 21.5625 6.95358C21.5625 10.7939 24.7805 13.9072 28.75 13.9072Z"
        fill="#2196F3" />
    <path
        d="M44.5625 50.0657C48.532 50.0657 51.75 46.9525 51.75 43.1121C51.75 39.2717 48.532 36.1585 44.5625 36.1585C40.593 36.1585 37.375 39.2717 37.375 43.1121C37.375 46.9525 40.593 50.0657 44.5625 50.0657Z"
        fill="#2196F3" />
</svg>
    