<svg width="430" height="112" viewBox="0 0 430 112" fill="none" xmlns="http://www.w3.org/2000/svg">
    <g clip-path="url(#clip0_127_93)">
        <path
            d="M430 111.12V70.9505C420.31 71.5205 411.56 74.5005 404.89 79.0805C400.01 73.6205 393.26 70.2405 385.81 70.2405C376.9 70.2405 369 75.0705 364.09 82.5205C357.35 78.4605 348.85 76.0305 339.59 76.0305C337.86 76.0305 336.16 76.1205 334.49 76.2905C335.11 76.0405 335.75 75.7505 336.36 75.3105C337.78 74.2805 338.44 72.5005 339.65 71.2305C340.24 70.6105 340.97 70.1005 341.43 69.3705C341.76 68.8505 341.93 68.2405 341.92 67.6205C341.92 66.8605 341.51 66.0105 340.77 65.8705C340.5 65.8205 340.21 65.8705 339.95 65.9305C338.31 66.3305 337.14 67.4005 335.72 68.1805C334.96 68.6005 331.68 70.0705 331.58 71.0405C331.73 69.5805 331.85 68.1305 331.92 66.6705C332.52 65.5805 333.31 64.6105 334.27 63.8205C335.59 62.7305 337.21 62.1305 338.65 61.2205C339.84 60.4805 340.86 59.5405 341.4 58.2105C341.9 56.9905 341.8 55.5505 341.11 54.6705C340.6 54.0305 339.76 53.7005 338.62 54.0205C337.72 54.2705 336.95 54.8505 336.28 55.5105C335.28 56.4905 334.45 57.6405 333.84 58.9105C333.58 59.4505 333.36 60.0105 333.15 60.5605C332.94 61.1105 332.02 62.4405 332.01 62.9705C332.01 61.8005 332.01 60.6305 331.98 59.4505C331.95 58.0805 331.92 56.7005 331.92 55.3305C331.92 54.8605 334.24 53.4405 334.68 53.1105C335.66 52.3705 336.7 51.8605 337.74 51.2305C338.93 50.5005 339.84 49.3305 340.25 47.9905C340.36 47.6205 340.44 47.2205 340.32 46.8605C340.14 46.3205 339.54 45.9905 338.97 45.9805C338.4 45.9605 337.85 46.2005 337.35 46.4705C335.9 47.2705 332.03 50.1905 331.95 52.0805C331.95 51.8705 331.97 51.6605 331.98 51.4405C332.95 49.1005 333.83 46.7405 335.06 44.5405C336.47 42.0205 337.86 35.0805 332.82 36.0805C331.56 36.3405 330.38 37.0805 329.7 38.1805C329.15 39.0705 328.95 40.1205 328.76 41.1405C328.51 42.4605 328.26 43.8005 328.36 45.1505C328.46 46.5505 328.94 47.8905 329.5 49.1605C329.8 49.8405 330.99 51.6505 330.97 52.3605C330.94 52.9905 330.94 53.6305 330.94 54.2605C329.95 52.9705 329.17 51.5705 328.53 50.0405C327.89 48.5205 327.09 46.8805 325.41 46.3505C324.81 46.1605 324.07 46.1105 323.49 46.3905C322.7 46.7705 323.17 47.5805 323.42 48.2005C324.06 49.8305 324.97 51.3705 326.08 52.7205C327.37 54.2905 328.95 55.6005 330.71 56.6105C330.77 56.6405 330.86 56.6505 330.95 56.6405C330.95 57.1205 330.95 57.5905 330.97 58.0705C331.03 60.7005 331.05 63.3205 330.97 65.9405C330.46 64.3205 329.8 62.7405 328.98 61.2405C328.45 60.2705 327.87 59.3305 327.22 58.4405C326.69 57.7005 326.12 56.8805 325.3 56.4405C324.06 55.7805 321.97 56.3905 322.13 58.0505C322.34 60.1305 323.86 62.0505 325.26 63.4805C326.99 65.2605 328.99 66.7605 330.5 68.7505C330.56 68.8305 330.69 68.8505 330.83 68.8305C330.75 69.9205 330.66 71.0005 330.53 72.0905C330.53 72.1105 330.53 72.1305 330.52 72.1405C329.7 73.1305 328.87 74.5205 328.47 75.9605C328.58 75.5605 327.73 73.8405 327.57 73.4205C327.1 72.1505 326.46 71.0205 325.73 69.8705C325.43 69.4105 325.13 68.9405 324.7 68.6005C324.2 68.2205 323.58 68.0505 322.96 67.9205C321.99 67.7205 321 67.5905 320.01 67.5505C320 68.2805 320.18 69.0105 320.51 69.6605C320.9 70.4005 321.48 71.0105 322.02 71.6305C323.11 72.8905 324.09 74.2405 324.93 75.6905C325.1 75.9905 325.27 76.3005 325.55 76.5005C326.25 77.0105 326.76 77.1605 327.25 77.4905C326.11 77.7705 324.99 78.0905 323.9 78.4505C323.71 78.2005 323.5 77.9605 323.27 77.7605C322.82 77.3805 322.25 77.1305 321.65 77.1505C321.53 77.1505 321.4 77.1705 321.28 77.2105C314.41 68.2805 301.7 62.2805 287.15 62.2805C269.92 62.2805 255.27 70.6805 249.85 82.4005C244.58 76.6405 236.44 72.9405 227.3 72.9405C218.16 72.9405 210.35 76.4805 205.07 82.0405C199.24 70.5105 183.99 62.2805 166.08 62.2805C151.49 62.2805 138.67 67.7505 131.27 76.0105C128.09 74.2705 124.57 73.2005 120.84 72.9805C120.67 69.9005 120.1 66.5205 118.35 64.0305C117.62 63.0005 116.63 61.9805 115.28 62.1005C114.19 62.2005 113.32 62.9005 112.85 63.8705C111.51 66.6105 112.61 70.3905 113.47 73.1105C113.52 73.2905 113.59 73.4605 113.64 73.6305C112.19 73.9805 110.78 74.4705 109.42 75.0805C108.11 73.9305 106.8 72.7805 105.49 71.6305C105.86 67.9905 106.03 64.3205 105.96 60.6605C105.94 59.0205 105.86 57.3805 105.74 55.7405C105.68 54.8205 105.59 53.9005 105.5 53.0005C105.43 52.3505 105.48 51.4905 105.19 50.8805C104.76 49.9605 103.48 50.1805 102.76 50.5605C101.88 51.0205 101.27 51.8605 100.93 52.7805C100.01 55.3105 100.75 58.5405 101.13 61.1005C101.53 63.8505 102.12 66.5605 102.81 69.2505C102.52 68.9905 102.23 68.7305 101.94 68.4705C99.45 66.1805 97.06 63.7805 94.76 61.2905C94.92 61.1905 95.03 61.0405 94.99 60.8605C94.88 60.3205 94.77 59.7905 94.65 59.2505C94.62 59.0105 94.57 58.7705 94.51 58.5205C94.47 58.3205 94.42 58.1105 94.38 57.9105C94.64 55.3505 95.65 54.9805 96.62 52.8405C96.86 52.3205 96.86 51.7305 96.86 51.1605C96.89 48.3805 97.19 45.6105 97.73 42.8905C98 41.5305 98.34 40.1705 98.3 38.7905C98.26 37.5805 97.91 36.3705 97.31 35.3305C95.92 36.2105 94.6 37.2105 93.37 38.3105C92.59 39.0005 91.83 39.7605 91.42 40.7305C91.07 41.5705 91.02 42.5005 90.97 43.4105C90.84 45.6705 90.85 47.8205 91.21 50.0605C91.33 50.8005 91.5 53.9905 91.99 54.4705C90.23 52.7205 87.92 51.4005 85.93 50.6405C85.9 50.6205 85.89 50.6005 85.87 50.5705C84.8 49.1105 83.78 47.6105 82.78 46.1005C82.99 46.0005 83.17 45.8705 83.18 45.7105C83.71 41.5805 85.37 37.7505 86.41 33.7605C87.25 30.5205 87.88 26.5005 86.49 23.3105C85.38 20.7705 81.87 21.6205 80.63 23.6005C79.81 24.9205 79.66 26.5805 79.5 28.0805C79.29 29.9105 79.22 31.7505 79.24 33.5905C79.28 36.4305 79.62 39.2505 80.21 42.0205C77.96 38.3105 75.85 34.5005 73.79 30.6505C73.42 29.9505 73.04 29.2605 72.66 28.5605C72.8 28.5005 72.92 28.4205 72.98 28.3305C74.69 25.4105 75.89 22.2205 76.47 18.8805C76.97 16.0105 77.03 13.0405 76.62 10.1505C76.47 9.05047 76.49 7.49047 75.04 7.60047C73.99 7.68047 72.96 8.36047 72.25 9.13047C70.27 11.2905 70.45 14.3305 70.77 17.0505C71.1 19.7805 71.11 22.4505 70.74 25.1305C70.22 24.2105 69.69 23.2905 69.15 22.4005C68.54 21.4005 68.77 17.8005 68.65 16.5705C68.43 14.2605 68.02 11.9405 67.03 9.83047C66.08 7.80047 64.63 6.07047 63.2 4.37047C62.09 3.05047 60.95 1.70047 59.44 0.86047C57.57 -0.169529 55.27 -0.26953 53.25 0.40047C45.19 3.11047 52.84 11.9905 56.92 14.4705C60.48 16.6305 63.67 19.3205 66.97 21.9105C67.17 22.2005 67.36 22.5005 67.54 22.8005C65.89 20.1305 57.95 19.1005 55.21 19.1505C54.27 19.1705 53.29 19.2805 52.48 19.7705C51.67 20.2605 51.08 21.2205 51.26 22.1605C51.38 22.7905 51.82 23.3005 52.28 23.7405C53.96 25.3305 56.22 26.2805 58.52 26.3505C60.53 26.4105 62.44 26.2905 64.45 26.5405C65.36 26.6505 69.85 26.7805 70.23 27.4705C71.34 29.4605 72.42 31.4705 73.5 33.4805C74.42 35.2005 75.35 36.9105 76.32 38.6005C75.87 37.8405 73.47 36.6705 72.72 36.0605C71.96 35.4405 71.19 34.8105 70.38 34.2405C68.48 32.9105 66.34 31.9205 64.1 31.3405C62.61 30.9505 61.02 30.7405 59.53 31.1205C57.62 31.6005 56.69 32.7705 56.49 34.1405V34.1205C56.22 35.9605 57.24 38.1305 58.95 39.4805C60.8 40.9405 63.04 41.4605 65.35 41.5505C68.15 41.6605 70.97 41.2005 73.76 41.6805C75.78 42.0305 77.71 42.7805 79.46 43.8605C80.75 45.9105 82.1 47.9105 83.51 49.8905C82.57 48.5705 76.67 49.1505 75.23 49.1705C72.55 49.2105 70.01 48.6305 67.32 49.4105C66.88 49.5405 66.44 49.7005 66.09 50.0005C65.14 50.8105 65.25 52.3805 65.86 53.4805C66.35 54.3805 67.1 55.1205 67.99 55.6005C69.24 56.2705 70.71 56.4005 72.06 56.8105C74.83 57.6505 77.24 59.6805 80.11 59.9905C85.21 60.5505 88.94 57.1705 93.01 61.5705C92.99 61.6005 92.99 61.6405 92.99 61.6705C92.94 61.9105 93.15 62.0205 93.44 62.0405C94.93 63.6405 96.47 65.2005 98.03 66.7205C95.3 65.7205 92.27 65.5305 89.42 66.2505C86.88 66.9105 84.62 68.4705 81.94 68.4905C79.65 68.5105 77.47 68.2005 75.36 69.3005C75.23 69.3705 74.89 69.6705 75.1 69.8505C78.82 72.9005 83.54 74.4505 88.32 74.3205C90.81 74.2505 93.17 73.6505 95.5 72.7805C97.88 71.8805 100.38 70.7505 102.94 71.2705C103.24 71.5405 103.55 71.8105 103.85 72.0705C103.83 72.3305 104.03 72.4405 104.31 72.4705C105.55 73.5605 106.79 74.6505 108.03 75.7405C106.27 76.6605 104.61 77.7805 103.09 79.0805C101.89 78.9105 100.68 78.7705 99.46 78.8205C98.75 78.8505 98.05 78.9505 97.36 79.0905C92.08 77.1005 86.14 75.9805 79.86 75.9805C73.58 75.9805 67.96 77.0405 62.79 78.9305C56.29 69.0605 42.9 62.2805 27.43 62.2805C16.76 62.2805 7.08998 65.5105 -0.0200195 70.7405V111.09H429.98L430 111.12Z"
            fill="#8E76AE" />
    </g>
    <defs>
        <clipPath id="clip0_127_93">
            <rect width="430" height="111.12" fill="white" />
        </clipPath>
    </defs>
</svg>
    