<svg width="47" height="48" viewBox="0 0 47 48" fill="none" xmlns="http://www.w3.org/2000/svg">
    <g clip-path="url(#clip0_37_717)">
        <path fill-rule="evenodd" clip-rule="evenodd"
            d="M35.3877 7.93747C35.3877 7.40497 35.1806 6.89427 34.8119 6.51773C34.4432 6.14119 33.9432 5.92966 33.4217 5.92966C32.9003 5.92966 32.4003 6.14119 32.0316 6.51773C31.6629 6.89427 31.4558 7.40497 31.4558 7.93747V9.94529H7.86393C7.34252 9.94529 6.84247 10.1568 6.47377 10.5334C6.10508 10.9099 5.89795 11.4206 5.89795 11.9531C5.89795 12.4856 6.10508 12.9963 6.47377 13.3728C6.84247 13.7494 7.34252 13.9609 7.86393 13.9609H31.4558V15.9687C31.4558 16.5012 31.6629 17.0119 32.0316 17.3885C32.4003 17.765 32.9003 17.9765 33.4217 17.9765C33.9432 17.9765 34.4432 17.765 34.8119 17.3885C35.1806 17.0119 35.3877 16.5012 35.3877 15.9687V13.9609H39.3197C39.8411 13.9609 40.3412 13.7494 40.7099 13.3728C41.0786 12.9963 41.2857 12.4856 41.2857 11.9531C41.2857 11.4206 41.0786 10.9099 40.7099 10.5334C40.3412 10.1568 39.8411 9.94529 39.3197 9.94529H35.3877V7.93747ZM7.86393 21.9922C7.34252 21.9922 6.84247 22.2037 6.47377 22.5803C6.10508 22.9568 5.89795 23.4675 5.89795 24C5.89795 24.5325 6.10508 25.0432 6.47377 25.4197C6.84247 25.7963 7.34252 26.0078 7.86393 26.0078H11.7959V28.0156C11.7959 28.5481 12.003 29.0588 12.3717 29.4354C12.7404 29.8119 13.2405 30.0234 13.7619 30.0234C14.2833 30.0234 14.7834 29.8119 15.1521 29.4354C15.5207 29.0588 15.7279 28.5481 15.7279 28.0156V26.0078H39.3197C39.8411 26.0078 40.3412 25.7963 40.7099 25.4197C41.0786 25.0432 41.2857 24.5325 41.2857 24C41.2857 23.4675 41.0786 22.9568 40.7099 22.5803C40.3412 22.2037 39.8411 21.9922 39.3197 21.9922H15.7279V19.9844C15.7279 19.4519 15.5207 18.9412 15.1521 18.5646C14.7834 18.1881 14.2833 17.9765 13.7619 17.9765C13.2405 17.9765 12.7404 18.1881 12.3717 18.5646C12.003 18.9412 11.7959 19.4519 11.7959 19.9844V21.9922H7.86393ZM5.89795 36.0469C5.89795 35.5144 6.10508 35.0037 6.47377 34.6271C6.84247 34.2506 7.34252 34.0391 7.86393 34.0391H31.4558V32.0312C31.4558 31.4987 31.6629 30.9881 32.0316 30.6115C32.4003 30.235 32.9003 30.0234 33.4217 30.0234C33.9432 30.0234 34.4432 30.235 34.8119 30.6115C35.1806 30.9881 35.3877 31.4987 35.3877 32.0312V34.0391H39.3197C39.8411 34.0391 40.3412 34.2506 40.7099 34.6271C41.0786 35.0037 41.2857 35.5144 41.2857 36.0469C41.2857 36.5794 41.0786 37.0901 40.7099 37.4666C40.3412 37.8432 39.8411 38.0547 39.3197 38.0547H35.3877V40.0625C35.3877 40.595 35.1806 41.1057 34.8119 41.4823C34.4432 41.8588 33.9432 42.0703 33.4217 42.0703C32.9003 42.0703 32.4003 41.8588 32.0316 41.4823C31.6629 41.1057 31.4558 40.595 31.4558 40.0625V38.0547H7.86393C7.34252 38.0547 6.84247 37.8432 6.47377 37.4666C6.10508 37.0901 5.89795 36.5794 5.89795 36.0469Z"
            fill="white" />
    </g>
    <defs>
        <clipPath id="clip0_37_717">
            <rect width="47" height="48" fill="white" />
        </clipPath>
    </defs>
</svg>
    