<svg width="125" height="119" viewBox="0 0 125 119" fill="none" xmlns="http://www.w3.org/2000/svg">
    <rect x="4" y="3.5" width="117" height="112" rx="56" fill="#FCFCFC" stroke="#8675AA"
        stroke-width="7" />
    <path
        d="M89.1875 45.8231L76.6748 33.3125C76.2588 32.8964 75.7649 32.5663 75.2213 32.3411C74.6777 32.1159 74.0951 32 73.5067 32C72.9183 32 72.3357 32.1159 71.7921 32.3411C71.2486 32.5663 70.7547 32.8964 70.3386 33.3125L35.8132 67.8397C35.3954 68.2542 35.0641 68.7477 34.8387 69.2913C34.6133 69.835 34.4981 70.418 34.5 71.0066V83.5199C34.5 84.7081 34.972 85.8476 35.8121 86.6878C36.6523 87.528 37.7917 88 38.9799 88H51.4926C52.0811 88.0019 52.6641 87.8867 53.2077 87.6613C53.7514 87.4358 54.2448 87.1046 54.6593 86.6868L78.086 63.2617L79.0603 67.1537L68.7567 77.4551C68.3364 77.875 68.1001 78.4447 68.0999 79.0389C68.0996 79.633 68.3354 80.203 68.7553 80.6233C69.1752 81.0436 69.7449 81.2799 70.3391 81.2802C70.9332 81.2804 71.5031 81.0446 71.9234 80.6247L83.123 69.4246C83.3969 69.1511 83.5953 68.8114 83.6988 68.4384C83.8024 68.0655 83.8075 67.6721 83.7137 67.2965L81.7818 59.5656L89.1875 52.1596C89.6036 51.7435 89.9337 51.2496 90.1589 50.706C90.3841 50.1624 90.5 49.5797 90.5 48.9913C90.5 48.4029 90.3841 47.8203 90.1589 47.2766C89.9337 46.733 89.6036 46.2391 89.1875 45.8231ZM38.9799 75.4866L47.0127 83.5199H38.9799V75.4866ZM52.4193 82.5931L39.9066 70.0798L63.6189 46.3663L76.1316 58.8796L52.4193 82.5931ZM79.2983 55.7128L66.7884 43.1995L73.5081 36.4794L86.018 48.9927L79.2983 55.7128Z"
        fill="#8675AA" />
</svg>
    