<svg width="168" height="33" viewBox="0 0 168 33" fill="none" xmlns="http://www.w3.org/2000/svg">
    <path
        d="M18 26.6788L9.78523 32.5554C9.37819 32.8675 8.93415 33.0152 8.4531 32.9985C7.97206 32.9819 7.54652 32.8515 7.17648 32.6074C6.80645 32.3648 6.52004 32.0354 6.31726 31.6193C6.11448 31.2033 6.10486 30.7526 6.2884 30.2672L9.4522 20.6462L1.40394 15.2896C0.9599 15.0123 0.682374 14.6482 0.571364 14.1975C0.460353 13.7468 0.478855 13.3307 0.626869 12.9494C0.774883 12.568 1.03391 12.2296 1.40394 11.9342C1.77398 11.6388 2.21802 11.4918 2.73607 11.4932H12.6715L15.8908 1.50817C16.0758 1.02279 16.363 0.649733 16.7522 0.389013C17.1415 0.128292 17.5574 -0.00137581 18 1.10064e-05C18.444 1.10064e-05 18.8607 0.130372 19.25 0.391093C19.6393 0.651813 19.9257 1.02417 20.1092 1.50817L23.3285 11.4932H33.2639C33.782 11.4932 34.226 11.6409 34.5961 11.9363C34.9661 12.2317 35.2251 12.5694 35.3731 12.9494C35.5211 13.3307 35.5396 13.7468 35.4286 14.1975C35.3176 14.6482 35.0401 15.0123 34.5961 15.2896L26.5478 20.6462L29.7116 30.2672C29.8966 30.7526 29.8877 31.2033 29.685 31.6193C29.4822 32.0354 29.195 32.3648 28.8235 32.6074C28.4535 32.8501 28.0279 32.9805 27.5469 32.9985C27.0658 33.0166 26.6218 32.8689 26.2148 32.5554L18 26.6788Z"
        fill="#8675AA" />
    <path
        d="M150 26.6788L141.785 32.5554C141.378 32.8675 140.934 33.0152 140.453 32.9985C139.972 32.9819 139.547 32.8515 139.176 32.6074C138.806 32.3648 138.52 32.0354 138.317 31.6193C138.114 31.2033 138.105 30.7526 138.288 30.2672L141.452 20.6462L133.404 15.2896C132.96 15.0123 132.682 14.6482 132.571 14.1975C132.46 13.7468 132.479 13.3307 132.627 12.9494C132.775 12.568 133.034 12.2296 133.404 11.9342C133.774 11.6388 134.218 11.4918 134.736 11.4932H144.672L147.891 1.50817C148.076 1.02279 148.363 0.649733 148.752 0.389013C149.142 0.128292 149.557 -0.00137581 150 1.10064e-05C150.444 1.10064e-05 150.861 0.130372 151.25 0.391093C151.639 0.651813 151.926 1.02417 152.109 1.50817L155.328 11.4932H165.264C165.782 11.4932 166.226 11.6409 166.596 11.9363C166.966 12.2317 167.225 12.5694 167.373 12.9494C167.521 13.3307 167.54 13.7468 167.429 14.1975C167.318 14.6482 167.04 15.0123 166.596 15.2896L158.548 20.6462L161.712 30.2672C161.897 30.7526 161.888 31.2033 161.685 31.6193C161.482 32.0354 161.195 32.3648 160.824 32.6074C160.453 32.8501 160.028 32.9805 159.547 32.9985C159.066 33.0166 158.622 32.8689 158.215 32.5554L150 26.6788Z"
        fill="#8675AA" />
    <path
        d="M106 26.6788L97.7852 32.5554C97.3782 32.8675 96.9341 33.0152 96.4531 32.9985C95.9721 32.9819 95.5465 32.8515 95.1765 32.6074C94.8064 32.3648 94.52 32.0354 94.3173 31.6193C94.1145 31.2033 94.1049 30.7526 94.2884 30.2672L97.4522 20.6462L89.4039 15.2896C88.9599 15.0123 88.6824 14.6482 88.5714 14.1975C88.4604 13.7468 88.4789 13.3307 88.6269 12.9494C88.7749 12.568 89.0339 12.2296 89.4039 11.9342C89.774 11.6388 90.218 11.4918 90.7361 11.4932H100.672L103.891 1.50817C104.076 1.02279 104.363 0.649733 104.752 0.389013C105.142 0.128292 105.557 -0.00137581 106 1.10064e-05C106.444 1.10064e-05 106.861 0.130372 107.25 0.391093C107.639 0.651813 107.926 1.02417 108.109 1.50817L111.328 11.4932H121.264C121.782 11.4932 122.226 11.6409 122.596 11.9363C122.966 12.2317 123.225 12.5694 123.373 12.9494C123.521 13.3307 123.54 13.7468 123.429 14.1975C123.318 14.6482 123.04 15.0123 122.596 15.2896L114.548 20.6462L117.712 30.2672C117.897 30.7526 117.888 31.2033 117.685 31.6193C117.482 32.0354 117.195 32.3648 116.824 32.6074C116.453 32.8501 116.028 32.9805 115.547 32.9985C115.066 33.0166 114.622 32.8689 114.215 32.5554L106 26.6788Z"
        fill="#8675AA" />
    <path
        d="M62 26.6788L53.7852 32.5554C53.3782 32.8675 52.9341 33.0152 52.4531 32.9985C51.9721 32.9819 51.5465 32.8515 51.1765 32.6074C50.8064 32.3648 50.52 32.0354 50.3173 31.6193C50.1145 31.2033 50.1049 30.7526 50.2884 30.2672L53.4522 20.6462L45.4039 15.2896C44.9599 15.0123 44.6824 14.6482 44.5714 14.1975C44.4604 13.7468 44.4789 13.3307 44.6269 12.9494C44.7749 12.568 45.0339 12.2296 45.4039 11.9342C45.774 11.6388 46.218 11.4918 46.7361 11.4932H56.6715L59.8908 1.50817C60.0758 1.02279 60.363 0.649733 60.7522 0.389013C61.1415 0.128292 61.5574 -0.00137581 62 1.10064e-05C62.444 1.10064e-05 62.8607 0.130372 63.25 0.391093C63.6393 0.651813 63.9257 1.02417 64.1092 1.50817L67.3285 11.4932H77.2639C77.782 11.4932 78.226 11.6409 78.5961 11.9363C78.9661 12.2317 79.2251 12.5694 79.3731 12.9494C79.5211 13.3307 79.5396 13.7468 79.4286 14.1975C79.3176 14.6482 79.0401 15.0123 78.5961 15.2896L70.5478 20.6462L73.7116 30.2672C73.8966 30.7526 73.8877 31.2033 73.685 31.6193C73.4822 32.0354 73.195 32.3648 72.8235 32.6074C72.4535 32.8501 72.0279 32.9805 71.5469 32.9985C71.0658 33.0166 70.6218 32.8689 70.2148 32.5554L62 26.6788Z"
        fill="#8675AA" />
</svg>
    