<svg width="52" height="55" viewBox="0 0 52 55" fill="none" xmlns="http://www.w3.org/2000/svg">
    <path
        d="M50 24.2306H35V42.9779H18.6681V36.7446H3V52.8822H13.6332V53.21H45.3319V50.9022H50V24.2306ZM28.952 15.051C29.1834 15.2408 29.3319 15.6506 29.2751 15.9483L29 17.5961C28.952 17.8938 29.1223 18.0102 29.3843 17.8549L30.8253 17.0095C31.083 16.8499 31.5196 16.8455 31.7817 16.9879L33.262 17.773C33.5328 17.9153 33.6987 17.7902 33.6332 17.4926L33.2838 15.862C33.2227 15.5687 33.3537 15.1503 33.5721 14.9518L34.7467 13.8346C34.9694 13.6275 34.9039 13.4205 34.6026 13.386L32.952 13.1918C32.6463 13.1616 32.2882 12.9071 32.1528 12.6397L31.4192 11.2119C31.2838 10.9487 31.0699 10.9487 30.9432 11.2205L30.2838 12.6785C30.1572 12.9589 29.8122 13.222 29.5065 13.2695L27.8559 13.5326C27.559 13.5758 27.4978 13.7871 27.7293 13.9856L28.952 15.051ZM36.7773 5.8758C37.0087 6.06561 37.1572 6.47541 37.1004 6.77305L36.8253 8.42089C36.7773 8.71853 36.9476 8.835 37.2096 8.67971L38.6507 7.83422C38.9083 7.67462 39.345 7.6703 39.607 7.81266L41.0873 8.59775C41.3581 8.7401 41.524 8.615 41.4585 8.31736L41.1092 6.68678C41.048 6.39345 41.179 5.97502 41.3974 5.77659L42.5721 4.65934C42.7948 4.45228 42.7293 4.24523 42.4279 4.21072L40.7773 4.0166C40.4716 3.9864 40.1135 3.7319 39.9782 3.46445L39.2445 2.03661C39.1092 1.77348 38.8952 1.77348 38.7686 2.04524L38.1092 3.50327C37.9825 3.78366 37.6376 4.0468 37.3319 4.09425L35.6812 4.35738C35.3843 4.40483 35.3231 4.61189 35.5546 4.81032L36.7773 5.8758ZM22.3843 22.8071C23.0349 22.6734 24.6812 22.2118 24.6026 21.3232C24.5109 20.2447 22.1834 20.0247 21.393 19.8004C14.9607 18.0059 13.6943 8.45971 18.4236 4.20209C19.1354 3.55935 19.9345 3.01582 20.7031 2.44641C21.1572 2.10994 22.6507 1.61818 22.5109 0.88054C22.2969 -0.00376892 19.738 -0.00376886 19.0873 0.000544842C16.6463 0.00917224 14.1965 0.552698 12.0262 1.67426C8.87773 3.30053 6.80786 6.69972 6.50218 10.1248C6.19651 13.524 6.60262 16.4055 9.12227 18.9247C12.7729 22.5698 17.3624 23.851 22.3843 22.8071Z"
        fill="#FCC21B" />
    <path
        d="M47.7737 21.2844H36.5791C34.2504 21.2844 32.3483 23.1108 32.3483 25.3375V38.8593H20.2694V36.539C20.2694 34.3081 18.3629 32.4859 16.0386 32.4859H4.23075C1.90206 32.4859 0 34.3123 0 36.539V50.1247C0 50.2439 0.0266646 50.3546 0.0355527 50.4738V54.1778H52V25.3375C52.0044 23.1108 50.0979 21.2844 47.7737 21.2844ZM6.9283 48.4856C6.9283 49.0986 6.4039 49.601 5.76395 49.601H4.40407C3.76412 49.601 3.23972 49.0986 3.23972 48.4856V46.4164C3.23972 45.8076 3.76412 45.3009 4.40407 45.3009H5.76395C6.4039 45.3009 6.9283 45.8033 6.9283 46.4164V48.4856ZM6.9283 42.1461C6.9283 42.7592 6.4039 43.2616 5.76395 43.2616H4.40407C3.76412 43.2616 3.23972 42.7592 3.23972 42.1461V40.077C3.23972 39.4682 3.76412 38.9615 4.40407 38.9615H5.76395C6.4039 38.9615 6.9283 39.4639 6.9283 40.077V42.1461ZM12.1101 48.4856C12.1101 49.0986 11.5857 49.601 10.9457 49.601H9.58585C8.9459 49.601 8.4215 49.0986 8.4215 48.4856V46.4164C8.4215 45.8076 8.9459 45.3009 9.58585 45.3009H10.9457C11.5857 45.3009 12.1101 45.8033 12.1101 46.4164V48.4856ZM12.1101 42.1461C12.1101 42.7592 11.5857 43.2616 10.9457 43.2616H9.58585C8.9459 43.2616 8.4215 42.7592 8.4215 42.1461V40.077C8.4215 39.4682 8.9459 38.9615 9.58585 38.9615H10.9457C11.5857 38.9615 12.1101 39.4639 12.1101 40.077V42.1461ZM17.2919 42.1461C17.2919 42.6613 16.9186 43.0743 16.4208 43.202C16.323 43.2275 16.2297 43.2616 16.1275 43.2616H14.7676C14.1277 43.2616 13.6033 42.7592 13.6033 42.1461V40.077C13.6033 39.4682 14.1277 38.9615 14.7676 38.9615H16.1275C16.2297 38.9615 16.323 38.9913 16.4208 39.0211C16.9141 39.1488 17.2919 39.5661 17.2919 40.077V42.1461ZM22.4736 48.4856C22.4736 49.0986 21.9492 49.601 21.3093 49.601H19.9538C19.3139 49.601 18.7895 49.0986 18.7895 48.4856V46.4164C18.7895 45.8076 19.3139 45.3009 19.9538 45.3009H21.3137C21.9537 45.3009 22.4781 45.8033 22.4781 46.4164V48.4856H22.4736ZM39.7788 29.0628C39.7788 29.6759 39.2544 30.1783 38.6145 30.1783H37.2546C36.6146 30.1783 36.0902 29.6759 36.0902 29.0628V26.9937C36.0902 26.3806 36.6146 25.8782 37.2546 25.8782H38.6145C39.2544 25.8782 39.7788 26.3806 39.7788 26.9937V29.0628ZM43.894 42.5123C43.894 42.7166 43.3696 43.219 42.7297 43.219H41.3698C40.7298 43.219 40.2054 42.7166 40.2054 42.1036V40.0344C40.2054 39.4213 40.7298 38.9189 41.3698 38.9189H42.7297C43.3696 38.9189 43.894 39.4213 43.894 39.6257V42.5123ZM48.8714 36.3176C48.8714 36.522 48.347 37.0244 47.707 37.0244H46.3471C45.7072 37.0244 45.1828 36.522 45.1828 35.9089V33.8397C45.1828 33.2309 45.7072 32.7243 46.3471 32.7243H47.707C48.347 32.7243 48.8714 33.2267 48.8714 33.431V36.3176ZM48.8714 29.4715C48.8714 29.6759 48.347 30.1783 47.707 30.1783H46.3471C45.7072 30.1783 45.1828 29.6759 45.1828 29.0628V26.9937C45.1828 26.3806 45.7072 25.8782 46.3471 25.8782H47.707C48.347 25.8782 48.8714 26.3806 48.8714 26.585V29.4715Z"
        fill="#006CA2" />
</svg>
    