<svg width="129" height="124" viewBox="0 0 129 124" fill="none" xmlns="http://www.w3.org/2000/svg">
<rect x="2" y="2" width="125" height="120" rx="60" fill="#FCFCFC" stroke="#8675AA" stroke-width="4"/>
<path d="M46.884 62.356C46.884 60.996 48.244 57.324 50.08 57.324H57.764L58.24 56.916L58.716 55.964C58.716 51.884 58.24 45.084 64.156 45.084C69.596 45.084 69.596 52.36 69.596 55.964L70.48 56.916H77.28C79.524 56.916 80.476 60.52 80.476 62.356C80.476 69.156 71.364 64.124 69.596 68.204C67.76 71.876 70.004 78.676 64.156 78.676C56.88 78.676 61.436 70.516 57.764 68.204C54.636 65.96 46.884 68.68 46.884 62.356Z" fill="#8675AA"/>
</svg>
