<svg width="264" height="264" viewBox="0 0 264 264" fill="none" xmlns="http://www.w3.org/2000/svg">
    <g clip-path="url(#clip0_64_38)">
        <path
            d="M219.438 231.236L153.403 194.572L123.658 264L102.89 191.379L32.7628 219.438L69.4276 153.403L0 123.658L72.6195 102.89L44.5604 32.7628L110.597 69.4276L140.342 0L161.11 72.6195L231.236 44.5604L194.572 110.597L264 140.342L191.379 161.11L219.438 231.236Z"
            fill="#E5D2EC" />
        <path
            d="M178.34 159.228C181.268 151.015 183.576 142.321 183.539 137.092C183.539 137.092 159.402 129.558 155.549 125.552C155.549 125.552 148.993 116.041 147.426 111.895C144.726 104.751 144.971 99.5863 143.822 91.8911C143.26 88.1252 145.245 71.285 143.909 69.488C142.572 67.6909 137.882 68.4343 134.685 71.9114C130.728 76.2167 129.264 80.3119 128.609 86.4559C128.129 90.9544 127.047 98.2153 125.208 98.4372C125.042 98.4575 124.719 98.411 124.268 98.3107C124.171 98.0375 124.107 97.8788 124.103 97.8692C123.965 97.5315 123.579 97.3704 123.242 97.5089C123.045 97.59 122.91 97.7559 122.858 97.9468C116.838 96.2524 101.68 90.7921 98.2433 90.9281C94.1195 91.0928 90.9049 93.4375 90.325 97.1425C89.7451 100.849 90.8751 103.64 90.8751 103.64C90.8751 103.64 87.738 105.079 86.1081 108.622C86.1069 108.62 86.1045 108.619 86.1021 108.619C86.083 108.662 86.0651 108.706 86.046 108.75C86.0281 108.791 86.0114 108.832 85.9935 108.871C85.8969 109.096 85.805 109.327 85.7226 109.568C85.7179 109.58 85.7143 109.593 85.7107 109.605C85.6439 109.802 85.5842 110.006 85.5281 110.213C85.4255 110.592 85.3396 110.987 85.2776 111.403C85.2776 111.404 85.2776 111.405 85.2776 111.407C85.2573 111.539 85.2406 111.674 85.2251 111.811C85.2119 111.929 85.2012 112.05 85.1905 112.17C85.1893 112.187 85.1869 112.202 85.1857 112.218C85.1117 113.161 85.1451 114.19 85.3265 115.317C85.3265 115.317 83.6249 116.559 82.0892 118.636C82.0844 118.642 82.0785 118.651 82.0737 118.658C81.9687 118.8 81.8649 118.945 81.7623 119.096C81.7313 119.141 81.7002 119.188 81.6692 119.234C81.5928 119.349 81.5165 119.465 81.4425 119.584C81.4115 119.633 81.3804 119.683 81.3506 119.733C81.2766 119.854 81.2038 119.976 81.1334 120.102C81.106 120.151 81.0785 120.2 81.0511 120.25C80.9783 120.382 80.9079 120.516 80.8387 120.652C80.816 120.697 80.7922 120.742 80.7707 120.789C80.6967 120.941 80.6251 121.094 80.5571 121.251C80.5428 121.284 80.5273 121.318 80.5129 121.351C79.5273 123.649 79.1944 126.457 80.7265 129.52C80.7265 129.52 78.0382 131.945 76.5574 135.317C76.5574 135.316 76.5574 135.314 76.5574 135.313C76.5371 135.358 76.5204 135.405 76.5013 135.45C76.4595 135.548 76.4201 135.645 76.3808 135.744C76.3533 135.812 76.3259 135.88 76.3008 135.949C76.2423 136.105 76.1851 136.263 76.1326 136.422C76.1182 136.463 76.1063 136.505 76.0932 136.548C76.049 136.685 76.0085 136.825 75.9691 136.965C75.956 137.014 75.9416 137.062 75.9285 137.113C75.882 137.292 75.8378 137.471 75.8008 137.652C75.7901 137.706 75.7782 137.758 75.7674 137.812C75.7448 137.929 75.7269 138.048 75.709 138.166C75.6982 138.239 75.6875 138.313 75.6779 138.386C75.6636 138.496 75.6517 138.605 75.6421 138.716C75.635 138.801 75.629 138.887 75.6242 138.973C75.6183 139.077 75.6111 139.179 75.6087 139.283C75.6063 139.386 75.6087 139.488 75.6087 139.592C75.6087 139.683 75.6087 139.771 75.6123 139.862C75.6207 140.049 75.6362 140.238 75.6576 140.426C75.666 140.495 75.6791 140.566 75.6887 140.636C75.7066 140.766 75.7269 140.895 75.7519 141.026C75.7674 141.106 75.7865 141.185 75.8044 141.265C75.8319 141.388 75.8617 141.511 75.8963 141.633C75.919 141.714 75.9428 141.795 75.9691 141.876C76.0085 142 76.0514 142.125 76.0968 142.248C76.1254 142.327 76.154 142.405 76.1851 142.482C76.2399 142.617 76.3008 142.752 76.364 142.888C76.3951 142.953 76.4237 143.02 76.4571 143.087C76.5574 143.288 76.6659 143.488 76.7865 143.687C76.7865 143.687 76.7865 143.689 76.7865 143.69C76.8938 143.869 77.0156 144.043 77.148 144.216C77.2805 144.388 77.4248 144.556 77.5788 144.722C77.9904 145.162 78.4749 145.577 79.0035 145.965C79.2684 146.16 79.544 146.347 79.8268 146.528C80.1096 146.71 80.4008 146.884 80.6967 147.051C81.4353 147.469 82.199 147.843 82.9352 148.17C83.1082 148.247 83.2789 148.321 83.4483 148.393C83.5665 148.444 83.6858 148.494 83.8015 148.541C84.2251 148.716 84.6296 148.872 85.0055 149.01C85.1594 149.068 85.305 149.12 85.4482 149.171C85.4733 149.18 85.4983 149.189 85.5222 149.198C85.7656 149.284 85.9935 149.362 86.1976 149.43C86.2011 149.432 86.2047 149.433 86.2083 149.434C86.2608 149.451 86.3073 149.467 86.3563 149.483C86.3861 149.492 86.4183 149.503 86.4469 149.513C86.4481 149.513 86.4505 149.513 86.4529 149.514L86.4636 149.518C86.54 149.543 86.6116 149.565 86.6796 149.587C86.6844 149.587 86.6892 149.589 86.6939 149.591C86.7059 149.595 86.7178 149.599 86.7297 149.602C86.6271 149.942 86.8109 150.304 87.1498 150.417C87.7237 150.609 88.6401 150.862 89.7928 151.133C90.0792 151.284 90.3906 151.445 90.7247 151.614C91.0194 151.764 91.3309 151.921 91.6626 152.085C92.1065 152.305 92.5826 152.536 93.0909 152.78C93.9393 153.183 94.876 153.616 95.8986 154.072C96.1027 154.163 96.3115 154.255 96.5227 154.348C96.9451 154.533 97.3818 154.721 97.8329 154.912C98.2827 155.104 98.7469 155.298 99.223 155.493C99.7003 155.69 100.19 155.888 100.693 156.089C101.197 156.289 101.712 156.492 102.242 156.695C102.507 156.796 102.774 156.898 103.045 157C103.587 157.206 104.142 157.411 104.708 157.617C105.559 157.926 106.439 158.238 107.344 158.547C113.992 160.822 122.119 163.08 131.452 164.676C131.452 164.676 132.159 164.991 133.375 165.53C133.644 165.649 133.94 165.78 134.259 165.921C134.418 165.991 134.582 166.064 134.754 166.139C135.095 166.29 135.458 166.45 135.841 166.619C136.989 167.125 138.316 167.708 139.763 168.343C140.488 168.661 141.241 168.99 142.016 169.329C142.275 169.442 142.536 169.556 142.8 169.67C143.871 170.137 144.979 170.619 146.107 171.107C146.628 171.332 147.153 171.559 147.682 171.787C147.98 171.916 148.278 172.045 148.578 172.174C148.859 172.295 149.142 172.417 149.425 172.538C149.725 172.666 150.024 172.794 150.322 172.923C150.855 173.151 151.387 173.379 151.918 173.604C152.215 173.731 152.511 173.857 152.807 173.983C153.35 174.213 153.889 174.442 154.422 174.667C154.453 174.681 154.484 174.694 154.515 174.707C155.309 175.041 156.089 175.369 156.851 175.688C157.391 175.913 157.923 176.134 158.442 176.349C158.695 176.453 158.945 176.556 159.192 176.658C160.18 177.063 161.118 177.444 161.989 177.793C162.213 177.882 162.433 177.969 162.649 178.054C163.054 178.214 163.443 178.365 163.813 178.509C163.823 178.512 163.832 178.516 163.842 178.519C164.218 178.664 164.574 178.8 164.909 178.924C165.078 178.987 165.243 179.048 165.4 179.105C166.19 179.393 166.834 179.61 167.301 179.741C167.476 179.79 167.626 179.828 167.748 179.852C167.954 179.893 168.085 179.896 168.132 179.862C168.202 179.81 168.275 179.752 168.347 179.686C168.371 179.665 168.396 179.64 168.421 179.617C168.472 179.571 168.523 179.525 168.574 179.473C168.605 179.443 168.636 179.408 168.667 179.376C168.715 179.326 168.763 179.276 168.812 179.222C168.845 179.184 168.88 179.145 168.913 179.104C168.961 179.048 169.01 178.992 169.059 178.932C169.094 178.889 169.13 178.843 169.167 178.797C169.216 178.735 169.265 178.672 169.315 178.608C169.352 178.557 169.39 178.507 169.429 178.456C169.479 178.388 169.53 178.318 169.581 178.246C169.619 178.192 169.658 178.137 169.697 178.081C169.75 178.006 169.803 177.929 169.857 177.85C169.895 177.793 169.934 177.735 169.974 177.677C170.03 177.592 170.086 177.505 170.143 177.417C170.181 177.357 170.22 177.299 170.258 177.239C170.319 177.143 170.38 177.044 170.442 176.944C170.477 176.887 170.512 176.83 170.549 176.771C170.618 176.657 170.689 176.538 170.759 176.418C170.788 176.369 170.816 176.322 170.845 176.274C170.942 176.109 171.038 175.939 171.136 175.766C171.14 175.76 171.143 175.753 171.147 175.747C171.252 175.562 171.358 175.371 171.464 175.177C171.475 175.157 171.487 175.136 171.498 175.115C171.592 174.943 171.685 174.769 171.779 174.591C171.807 174.541 171.834 174.487 171.86 174.436C171.94 174.286 172.019 174.134 172.1 173.978C172.134 173.915 172.166 173.849 172.199 173.786C172.274 173.639 172.35 173.491 172.426 173.341C172.462 173.27 172.496 173.2 172.532 173.128C172.607 172.979 172.681 172.829 172.757 172.677C172.792 172.603 172.829 172.528 172.866 172.453C172.941 172.299 173.017 172.145 173.092 171.989C173.128 171.913 173.163 171.838 173.2 171.763C173.278 171.6 173.356 171.436 173.434 171.269C173.469 171.198 173.502 171.126 173.536 171.054C173.617 170.879 173.7 170.701 173.782 170.523C173.811 170.458 173.842 170.393 173.872 170.326C173.962 170.131 174.051 169.933 174.141 169.733C174.163 169.682 174.186 169.632 174.21 169.582C174.314 169.352 174.418 169.118 174.521 168.883C174.531 168.862 174.54 168.841 174.549 168.819C175.015 167.761 175.482 166.656 175.946 165.518C175.956 165.495 175.964 165.474 175.973 165.451C176.077 165.194 176.182 164.937 176.286 164.676C176.304 164.632 176.321 164.587 176.339 164.543C176.435 164.303 176.531 164.061 176.626 163.817C176.646 163.766 176.667 163.714 176.688 163.661C176.781 163.422 176.874 163.184 176.967 162.943C176.988 162.89 177.008 162.836 177.028 162.784C177.121 162.542 177.214 162.297 177.308 162.053C177.327 162.004 177.346 161.955 177.364 161.905C177.458 161.654 177.552 161.403 177.646 161.152C177.663 161.106 177.68 161.061 177.697 161.017C177.793 160.754 177.89 160.491 177.986 160.227C177.998 160.193 178.012 160.16 178.022 160.127C178.123 159.85 178.223 159.572 178.322 159.295L178.342 159.239L178.34 159.228Z"
            fill="#DC7861" />
        <path
            d="M86.7285 149.599C86.7309 149.593 86.7309 149.586 86.7332 149.578C86.849 149.234 87.2237 149.047 87.5697 149.163C88.0303 149.318 88.8083 149.538 89.7903 149.774C90.7736 150.012 91.9644 150.267 93.2722 150.504C95.8866 150.979 98.9687 151.377 101.779 151.403C103.651 151.422 105.403 151.272 106.792 150.89C107.614 150.663 108.266 150.209 108.821 149.564C109.374 148.921 109.814 148.083 110.149 147.142C110.686 145.643 110.95 143.896 111.067 142.314C110.318 143.008 109.003 144.135 107.27 145.258C104.48 147.065 85.5257 141.943 80.1585 140.19C77.5787 139.348 76.7363 137.258 76.5549 135.314C76.2303 136.053 75.9654 136.838 75.7972 137.652C75.7864 137.706 75.7745 137.758 75.7638 137.812C75.7411 137.929 75.7232 138.048 75.7053 138.166C75.6946 138.239 75.6838 138.313 75.6743 138.386C75.66 138.496 75.648 138.605 75.6385 138.716C75.6313 138.801 75.6254 138.887 75.6206 138.973C75.6146 139.077 75.6075 139.179 75.6051 139.283C75.6027 139.386 75.6051 139.488 75.6051 139.592C75.6051 139.683 75.6051 139.771 75.6086 139.862C75.617 140.049 75.6325 140.238 75.654 140.426C75.6623 140.496 75.6755 140.566 75.685 140.636C75.7029 140.766 75.7232 140.895 75.7483 141.027C75.7638 141.106 75.7829 141.185 75.8008 141.265C75.8282 141.388 75.858 141.511 75.8926 141.633C75.9153 141.714 75.9392 141.795 75.9654 141.876C76.0048 142 76.0478 142.125 76.0931 142.248C76.1217 142.327 76.1504 142.405 76.1814 142.482C76.2363 142.617 76.2971 142.752 76.3604 142.888C76.3914 142.954 76.42 143.02 76.4535 143.087C76.5537 143.288 76.6623 143.488 76.7828 143.687C76.7828 143.687 76.7828 143.689 76.7828 143.69C76.9988 144.048 77.2661 144.391 77.5751 144.722C77.9868 145.162 78.4712 145.578 78.9998 145.965C79.2647 146.16 79.5404 146.347 79.8232 146.529C80.106 146.71 80.3971 146.884 80.693 147.051C81.4317 147.469 82.1953 147.843 82.9316 148.17C83.1046 148.247 83.2752 148.321 83.4447 148.394C83.5628 148.444 83.6821 148.494 83.7979 148.542C84.2215 148.716 84.626 148.872 85.0018 149.01C85.3336 149.133 85.639 149.241 85.9171 149.335L85.9254 149.337C86.0173 149.368 86.1044 149.398 86.1891 149.427L86.1951 149.429C86.1951 149.429 86.2022 149.432 86.2058 149.433H86.2106C86.2929 149.462 86.3705 149.487 86.4445 149.512C86.4457 149.512 86.4481 149.512 86.4504 149.513L86.4612 149.516L86.4671 149.519C86.5399 149.541 86.6079 149.564 86.6724 149.584H86.6772C86.6772 149.584 86.6867 149.589 86.6915 149.59C86.6939 149.59 86.6963 149.59 86.6986 149.593C86.7082 149.596 86.7177 149.599 86.7273 149.602L86.7285 149.599Z"
            fill="#C6624F" />
        <path
            d="M80.551 129.137L83.5342 129.932C83.3647 129.766 83.2872 129.517 83.3587 129.273C83.4614 128.924 83.8289 128.723 84.1785 128.826L111.627 136.891C112.751 136.223 113.606 135.497 114.251 134.751C114.94 133.952 115.394 133.13 115.686 132.314C116.031 131.352 116.143 130.396 116.13 129.512C116.117 129.5 116.108 129.493 116.108 129.493C116.108 129.493 95.5525 125.727 90.6662 123.321C87.3012 121.665 83.9792 119.632 82.0891 118.637C81.9794 118.786 81.8708 118.939 81.7634 119.096C81.7324 119.141 81.7013 119.188 81.6703 119.235C81.5939 119.349 81.5176 119.465 81.4436 119.584C81.4126 119.633 81.3815 119.683 81.3517 119.733C81.2777 119.854 81.2049 119.977 81.1345 120.102C81.1071 120.151 81.0797 120.2 81.0522 120.25C80.9794 120.382 80.909 120.516 80.8398 120.652C80.8171 120.697 80.7933 120.743 80.7718 120.789C80.6978 120.941 80.6262 121.095 80.5582 121.251C80.5439 121.285 80.5284 121.318 80.5141 121.351C79.5726 123.553 79.2325 126.225 80.5534 129.138L80.551 129.137Z"
            fill="#C6624F" />
        <path
            d="M85.2774 111.405C85.1211 112.451 85.0996 113.615 85.2714 114.908L88.1567 115.869C88.3094 115.601 88.634 115.47 88.9382 115.571L115.688 124.476C118.119 122.606 119.372 120.735 119.977 119.046C120.322 118.079 120.455 117.166 120.465 116.336C119.352 117.681 116.987 120.164 115.147 119.517C112.989 118.759 92.5275 111.45 86.1031 108.619C85.9647 108.92 85.8382 109.236 85.7236 109.568C85.7189 109.58 85.7153 109.593 85.7117 109.605C85.5244 110.161 85.3752 110.759 85.2786 111.403C85.2786 111.404 85.2786 111.405 85.2786 111.407L85.2774 111.405Z"
            fill="#C6624F" />
        <path
            d="M178.338 159.228C173.238 159.146 153.525 152.763 149.109 147.886C145.683 144.104 145.889 139.034 145.198 137.808C145.194 137.813 145.189 137.818 145.184 137.824C143.492 139.647 141.291 141.487 138.605 142.544C136.816 143.248 134.808 143.598 132.634 143.344C131.896 143.258 131.168 143.078 130.456 142.822C128.481 142.115 126.616 140.845 124.911 139.351C123.207 137.856 121.663 136.133 120.358 134.498C119.15 132.985 118.149 131.552 117.417 130.442C117.357 131.186 117.209 131.966 116.926 132.758C116.582 133.72 116.043 134.693 115.247 135.615C114.524 136.453 113.587 137.247 112.403 137.966C112.44 138.53 112.492 139.616 112.457 140.95C112.403 142.912 112.17 145.403 111.392 147.586C111.017 148.633 110.515 149.614 109.822 150.423C109.133 151.231 108.238 151.865 107.139 152.163C104.782 152.805 101.787 152.825 98.7945 152.581C95.8043 152.332 92.8235 151.807 90.5528 151.306C90.2879 151.248 90.0361 151.189 89.7915 151.132C90.3297 151.414 90.9537 151.733 91.6625 152.084C92.1064 152.304 92.5825 152.535 93.0908 152.779C93.9392 153.182 94.8759 153.615 95.8985 154.071C96.1026 154.162 96.3114 154.254 96.5226 154.347C96.945 154.532 97.3817 154.72 97.8328 154.911C98.2826 155.103 98.7468 155.296 99.2229 155.492C99.7002 155.689 100.189 155.887 100.693 156.088C101.197 156.288 101.712 156.491 102.242 156.694C102.507 156.795 102.774 156.897 103.045 156.999C103.587 157.204 104.141 157.41 104.708 157.616C105.559 157.925 106.438 158.237 107.344 158.546C113.992 160.821 122.119 163.079 131.452 164.675C131.452 164.675 132.159 164.99 133.375 165.528C133.644 165.648 133.94 165.779 134.259 165.92C134.418 165.99 134.582 166.063 134.754 166.138C135.095 166.289 135.458 166.448 135.841 166.618C136.989 167.124 138.316 167.707 139.763 168.342C140.488 168.66 141.241 168.989 142.016 169.328C142.275 169.441 142.536 169.554 142.8 169.669C143.87 170.136 144.979 170.618 146.107 171.106C146.628 171.331 147.153 171.558 147.682 171.786C147.98 171.915 148.278 172.044 148.578 172.172C148.859 172.294 149.142 172.416 149.425 172.536C149.724 172.665 150.024 172.793 150.322 172.922C150.854 173.15 151.387 173.378 151.918 173.603C152.215 173.73 152.511 173.856 152.807 173.981C153.35 174.212 153.889 174.441 154.422 174.666C154.453 174.679 154.484 174.693 154.515 174.706C155.309 175.04 156.089 175.368 156.851 175.687C157.391 175.912 157.923 176.133 158.442 176.348C158.695 176.451 158.945 176.555 159.192 176.657C160.18 177.062 161.118 177.443 161.989 177.791C162.213 177.881 162.432 177.968 162.648 178.053C163.054 178.213 163.443 178.364 163.813 178.507C163.823 178.511 163.832 178.515 163.842 178.518C164.218 178.662 164.574 178.799 164.908 178.923C165.078 178.986 165.243 179.047 165.4 179.104C166.19 179.392 166.834 179.609 167.301 179.74C167.767 179.871 168.056 179.917 168.133 179.86C168.203 179.809 168.276 179.751 168.349 179.685C168.372 179.664 168.398 179.639 168.423 179.616C168.473 179.569 168.524 179.524 168.575 179.471C168.606 179.442 168.637 179.407 168.668 179.375C168.716 179.325 168.764 179.275 168.813 179.221C168.846 179.183 168.881 179.143 168.914 179.103C168.962 179.047 169.011 178.991 169.06 178.931C169.096 178.888 169.131 178.841 169.168 178.796C169.217 178.734 169.266 178.671 169.316 178.606C169.353 178.556 169.391 178.506 169.43 178.455C169.48 178.387 169.531 178.316 169.582 178.245C169.621 178.191 169.659 178.136 169.698 178.08C169.751 178.005 169.804 177.927 169.858 177.849C169.896 177.791 169.936 177.734 169.975 177.676C170.031 177.591 170.087 177.504 170.144 177.416C170.183 177.356 170.221 177.297 170.259 177.238C170.32 177.142 170.381 177.043 170.443 176.943C170.479 176.886 170.513 176.828 170.55 176.77C170.619 176.655 170.69 176.537 170.76 176.417C170.789 176.368 170.817 176.321 170.846 176.272C170.943 176.108 171.039 175.938 171.137 175.765C171.141 175.759 171.144 175.752 171.148 175.746C171.253 175.561 171.359 175.37 171.465 175.176C171.476 175.156 171.488 175.135 171.499 175.114C171.593 174.942 171.686 174.768 171.78 174.59C171.808 174.54 171.835 174.486 171.861 174.435C171.941 174.284 172.02 174.133 172.101 173.977C172.135 173.913 172.167 173.848 172.2 173.785C172.276 173.638 172.351 173.49 172.427 173.339C172.463 173.269 172.497 173.199 172.533 173.127C172.608 172.978 172.682 172.828 172.758 172.676C172.793 172.602 172.83 172.527 172.867 172.452C172.943 172.298 173.018 172.144 173.093 171.987C173.129 171.912 173.165 171.837 173.201 171.762C173.279 171.598 173.357 171.435 173.435 171.268C173.47 171.196 173.503 171.125 173.537 171.053C173.618 170.878 173.701 170.7 173.783 170.522C173.812 170.457 173.843 170.392 173.873 170.325C173.963 170.13 174.052 169.932 174.142 169.732C174.164 169.681 174.187 169.631 174.211 169.581C174.315 169.35 174.419 169.117 174.522 168.881C174.532 168.861 174.542 168.84 174.55 168.818C175.016 167.76 175.483 166.655 175.947 165.517C175.957 165.494 175.965 165.472 175.975 165.45C176.078 165.193 176.183 164.935 176.287 164.675C176.305 164.631 176.322 164.586 176.34 164.542C176.436 164.302 176.532 164.06 176.627 163.816C176.648 163.765 176.668 163.712 176.689 163.66C176.782 163.421 176.875 163.183 176.969 162.942C176.989 162.889 177.009 162.835 177.029 162.783C177.122 162.541 177.216 162.296 177.309 162.051C177.328 162.002 177.347 161.954 177.365 161.903C177.459 161.653 177.553 161.402 177.648 161.15C177.664 161.105 177.681 161.06 177.698 161.016C177.794 160.753 177.891 160.489 177.988 160.226C178 160.192 178.013 160.159 178.023 160.125C178.131 159.831 178.237 159.534 178.343 159.236H178.342L178.338 159.228Z"
            fill="#C6624F" />
        <path
            d="M122.88 98.3702C122.902 98.4227 123.416 99.7067 123.738 101.458C124.064 103.211 124.184 105.426 123.501 107.327C123.214 108.126 122.793 108.872 122.186 109.532C121.649 110.115 120.965 110.633 120.084 111.056C120.037 111.027 119.99 110.997 119.938 110.968C119.707 110.844 119.426 110.717 119.083 110.576C118.742 110.436 118.341 110.285 117.89 110.124C114.591 108.946 108.474 107.189 103.162 105.719C97.852 104.251 93.3594 103.074 93.3582 103.074C93.005 102.981 92.6447 103.192 92.5528 103.545C92.4609 103.897 92.6709 104.259 93.0241 104.351C93.0241 104.351 93.3045 104.424 93.8069 104.557C95.5681 105.023 100.064 106.219 104.829 107.553C109.591 108.886 114.633 110.361 117.446 111.367C118.113 111.606 118.655 111.818 119.021 111.986C119.204 112.07 119.342 112.144 119.417 112.192L119.446 112.211C119.536 112.363 119.95 113.103 120.22 114.214C120.368 114.824 120.473 115.541 120.465 116.334C120.456 117.164 120.323 118.078 119.977 119.044C119.372 120.734 118.119 122.605 115.689 124.475L88.9384 115.57C88.6342 115.469 88.3096 115.601 88.1569 115.868C88.1354 115.905 88.1175 115.945 88.1032 115.987C87.9874 116.333 88.1748 116.707 88.5208 116.823L115.329 125.748C115.475 126.087 115.74 126.772 115.926 127.669C116.039 128.218 116.118 128.844 116.128 129.51C116.141 130.393 116.029 131.35 115.684 132.312C115.391 133.128 114.938 133.952 114.248 134.75C113.604 135.496 112.75 136.221 111.624 136.889L84.1762 128.824C83.8266 128.722 83.4591 128.922 83.3565 129.272C83.2849 129.515 83.3624 129.764 83.5319 129.93C83.607 130.002 83.6965 130.06 83.8027 130.091L111.089 138.109C111.126 138.684 111.173 139.773 111.132 141.089C111.12 141.478 111.097 141.89 111.066 142.31C110.949 143.892 110.686 145.639 110.148 147.138C109.813 148.078 109.373 148.916 108.82 149.56C108.265 150.206 107.611 150.659 106.791 150.886C105.4 151.268 103.649 151.418 101.778 151.399C98.9676 151.373 95.8855 150.975 93.2711 150.501C91.9633 150.263 90.7725 150.008 89.7892 149.77C88.8072 149.534 88.0292 149.314 87.5686 149.159C87.2226 149.044 86.8479 149.23 86.7321 149.575C86.7298 149.582 86.7298 149.589 86.7274 149.595C86.6248 149.935 86.8085 150.297 87.1474 150.41C87.7213 150.602 88.6377 150.855 89.7904 151.126C90.035 151.184 90.2868 151.242 90.5517 151.3C92.8236 151.801 95.8032 152.326 98.7934 152.574C101.786 152.819 104.781 152.799 107.138 152.157C108.237 151.857 109.132 151.225 109.821 150.417C110.513 149.608 111.016 148.627 111.39 147.58C112.168 145.397 112.401 142.906 112.456 140.944C112.491 139.61 112.439 138.524 112.402 137.96C113.586 137.242 114.523 136.448 115.246 135.609C116.042 134.687 116.581 133.714 116.925 132.752C117.208 131.96 117.356 131.181 117.416 130.436C118.148 131.546 119.148 132.979 120.357 134.492C121.662 136.127 123.205 137.851 124.91 139.345C126.615 140.839 128.48 142.11 130.455 142.816C131.167 143.07 131.895 143.25 132.633 143.338C134.807 143.592 136.815 143.243 138.604 142.538C141.288 141.481 143.49 139.64 145.183 137.818C145.188 137.812 145.193 137.807 145.197 137.802C146.881 135.982 148.061 134.173 148.686 133.132C148.874 132.818 148.772 132.413 148.46 132.226C148.147 132.039 147.741 132.14 147.554 132.453C146.761 133.777 144.997 136.438 142.46 138.617C141.193 139.708 139.736 140.677 138.12 141.311C136.502 141.946 134.729 142.253 132.787 142.027C132.16 141.955 131.53 141.799 130.9 141.574C129.153 140.951 127.404 139.778 125.781 138.353C123.346 136.217 121.195 133.529 119.664 131.38C118.898 130.305 118.286 129.365 117.867 128.695C117.657 128.361 117.496 128.094 117.388 127.911C117.341 127.833 117.305 127.773 117.279 127.726C117.255 127.592 117.231 127.457 117.204 127.329C117.026 126.496 116.793 125.839 116.623 125.417C119.137 123.455 120.535 121.402 121.219 119.485C122.012 117.268 121.847 115.264 121.484 113.829C121.303 113.109 121.072 112.529 120.885 112.124C121.8 111.652 122.554 111.075 123.157 110.421C123.896 109.619 124.408 108.708 124.744 107.766C125.555 105.48 125.375 103.019 125.02 101.124C124.781 99.8618 124.458 98.8499 124.266 98.3046C124.169 98.0313 124.104 97.8726 124.101 97.8631C123.962 97.5254 123.577 97.3643 123.239 97.5027C123.043 97.5839 122.908 97.7497 122.855 97.9407C122.818 98.0767 122.821 98.2246 122.879 98.3643L122.88 98.3702Z"
            fill="#0C0E1B" />
        <path
            d="M136.705 82.6016C136.75 82.9346 136.832 83.2496 136.985 83.5383C137.137 83.8259 137.38 84.092 137.705 84.2447C137.836 84.3068 137.97 84.3617 138.105 84.4106C139.187 84.7924 140.367 84.7853 141.293 84.7053C142.218 84.623 142.888 84.4559 142.91 84.45C143.263 84.3617 143.479 84.0037 143.391 83.6493C143.302 83.2961 142.945 83.0801 142.59 83.1684H142.587C142.533 83.1828 141.908 83.3307 141.099 83.3952C140.291 83.4632 139.298 83.4369 138.55 83.1649C138.453 83.1303 138.36 83.0921 138.272 83.0503C138.237 83.0324 138.205 83.0109 138.15 82.9143C138.105 82.8308 138.057 82.6923 138.027 82.5074C137.972 82.184 137.971 81.7258 138.025 81.1996C138.105 80.4085 138.303 79.4622 138.561 78.5029C138.817 77.5435 139.132 76.5698 139.439 75.7107C139.76 74.8122 140.075 74.0342 140.303 73.533C140.479 73.1488 140.687 72.9328 140.911 72.786C141.081 72.6775 141.267 72.6082 141.468 72.5677C141.769 72.508 142.102 72.5211 142.396 72.5677C142.689 72.6142 142.94 72.693 143.077 72.7419C143.118 72.7562 143.149 72.7681 143.168 72.7765L143.187 72.7848C143.521 72.9316 143.91 72.7789 144.057 72.4448C144.203 72.1107 144.051 71.7217 143.717 71.5749C143.705 71.5701 143.635 71.5391 143.52 71.4985C143.174 71.378 142.424 71.1441 141.547 71.2229C141.111 71.2635 140.634 71.3911 140.194 71.6751C139.754 71.9567 139.364 72.397 139.099 72.9853C138.849 73.5342 138.526 74.3349 138.194 75.2644C137.642 76.8132 137.067 78.7045 136.805 80.3476C136.675 81.1721 136.619 81.931 136.706 82.5969L136.705 82.6016Z"
            fill="#0C0E1B" />
    </g>
    <defs>
        <clipPath id="clip0_64_38">
            <rect width="264" height="264" fill="white" />
        </clipPath>
    </defs>
</svg>
    